<svg width="390" height="390" xmlns="http://www.w3.org/2000/svg">

 <g>
  <title>background</title>
  <rect fill="none" id="canvas_background" height="5.278689" width="5.278689" y="-1" x="-1"/>
 </g>
 <g>
  <title>Layer 1</title>
  <g id="svg_1">
   <path fill="#07941e" id="svg_2" d="m383.408,84.898l-251.178,0l0,31.332l231.238,0l0,166.805l-231.238,0l0,41.225l42.014,0l-29.597,28.516c-0.978,0.942 -1.53,2.242 -1.53,3.601l0,6.396c0,2.761 2.238,5 5,5l151.375,0c2.762,0 5,-2.239 5,-5l0,-6.396c0,-1.358 -0.553,-2.658 -1.531,-3.601l-29.597,-28.516l110.044,0c3.64,0 6.592,-2.951 6.592,-6.596l0,-226.174c0,-3.64 -2.952,-6.592 -6.592,-6.592zm-159.605,212.654c4.008,0 7.254,3.247 7.254,7.254c0,4.006 -3.246,7.254 -7.254,7.254c-4.003,0 -7.25,-3.248 -7.25,-7.254c0,-4.007 3.247,-7.254 7.25,-7.254z"/>
   <path fill="#07941e" id="svg_3" d="m101.607,22.228l-93.531,0c-4.461,0 -8.076,3.615 -8.076,8.076l0,329.059c0,4.461 3.615,8.076 8.076,8.076l93.531,0c4.461,0 8.076,-3.615 8.076,-8.076l0,-329.059c0.001,-4.461 -3.615,-8.076 -8.076,-8.076zm-55.439,41.023c0,-0.705 0.571,-1.277 1.277,-1.277l14.795,0c0.705,0 1.277,0.572 1.277,1.277l0,127.422c0,0.706 -0.572,1.278 -1.277,1.278l-14.795,0c-0.706,0 -1.277,-0.572 -1.277,-1.278l0,-127.422zm16.271,194.396c0,4.195 -3.4,7.598 -7.598,7.598c-4.196,0 -7.598,-3.402 -7.598,-7.598c0,-4.196 3.401,-7.598 7.598,-7.598c4.198,0 7.598,3.401 7.598,7.598zm-7.597,60.641c-9.877,0 -17.885,-8.007 -17.885,-17.885c0,-9.877 8.008,-17.885 17.885,-17.885c9.877,0 17.885,8.008 17.885,17.885c0,9.878 -8.008,17.885 -17.885,17.885z"/>
  </g>
  <g id="svg_4"/>
  <g id="svg_5"/>
  <g id="svg_6"/>
  <g id="svg_7"/>
  <g id="svg_8"/>
  <g id="svg_9"/>
  <g id="svg_10"/>
  <g id="svg_11"/>
  <g id="svg_12"/>
  <g id="svg_13"/>
  <g id="svg_14"/>
  <g id="svg_15"/>
  <g id="svg_16"/>
  <g id="svg_17"/>
  <g id="svg_18"/>
 </g>
</svg>