<svg width="40" height="40" xmlns="http://www.w3.org/2000/svg">

 <g>
  <title>background</title>
  <rect fill="none" id="canvas_background" height="42" width="42" y="-1" x="-1"/>
 </g>
 <g>
  <title>Layer 1</title>
  <g id="svg_1">
   <path id="svg_2" d="m5.357143,35.857143l14,0c0.276,0 0.5,-0.224 0.5,-0.5s-0.224,-0.5 -0.5,-0.5l-14,0c-0.276,0 -0.5,-0.224 -0.5,-0.5l0,-29c0,-0.276 0.224,-0.5 0.5,-0.5l21,0c0.276,0 0.5,0.224 0.5,0.5l0,5c0,0.276 0.224,0.5 0.5,0.5s0.5,-0.224 0.5,-0.5l0,-5c0,-0.827 -0.673,-1.5 -1.5,-1.5l-21,0c-0.827,0 -1.5,0.673 -1.5,1.5l0,29c0,0.827 0.673,1.5 1.5,1.5z" fill="#07941e"/>
   <path id="svg_3" d="m21.857143,14.357143l0,20c0,0.827 0.673,1.5 1.5,1.5l11,0c0.827,0 1.5,-0.673 1.5,-1.5l0,-20c0,-0.827 -0.673,-1.5 -1.5,-1.5l-11,0c-0.827,0 -1.5,0.673 -1.5,1.5zm13,0l0,20c0,0.276 -0.224,0.5 -0.5,0.5l-11,0c-0.276,0 -0.5,-0.224 -0.5,-0.5l0,-20c0,-0.276 0.224,-0.5 0.5,-0.5l11,0c0.276,0 0.5,0.224 0.5,0.5z" fill="#07941e"/>
   <circle id="svg_4" r="1" cy="31.857143" cx="15.857143" fill="#07941e"/>
   <circle id="svg_5" r="1" cy="31.857143" cx="28.857143" fill="#07941e"/>
  </g>
 </g>
</svg>