<?xml version="1.0" standalone="no"?>
<!DOCTYPE svg PUBLIC "-//W3C//DTD SVG 20010904//EN"
 "http://www.w3.org/TR/2001/REC-SVG-20010904/DTD/svg10.dtd">
<svg version="1.0" xmlns="http://www.w3.org/2000/svg"
 width="463.000000pt" height="468.000000pt" viewBox="0 0 463.000000 468.000000"
 preserveAspectRatio="xMidYMid meet">

<g transform="translate(0.000000,468.000000) scale(0.100000,-0.100000)"
fill="#000000" stroke="none">
<path d="M2205 4664 c-302 -25 -549 -91 -800 -214 -623 -305 -1044 -883 -1151
-1580 -24 -155 -24 -434 0 -590 16 -109 62 -303 85 -362 l11 -28 485 0 485 0
0 135 c0 99 7 172 25 277 19 107 25 178 25 285 l0 143 -76 42 c-154 87 -179
104 -193 130 -14 24 -14 30 1 60 13 28 53 53 269 173 140 77 344 189 454 250
232 128 305 161 395 175 156 24 276 1 434 -84 266 -141 815 -447 851 -473 32
-23 41 -36 43 -64 2 -23 -3 -43 -15 -57 -22 -26 -890 -505 -986 -544 -87 -36
-199 -50 -297 -37 -126 15 -162 32 -550 248 l-235 130 -3 -122 c-2 -81 3 -157
14 -223 9 -54 19 -177 21 -271 l5 -173 136 2 c80 1 107 3 64 5 -62 3 -74 7
-87 27 -14 21 -13 28 19 97 34 74 56 181 56 275 0 24 3 44 6 44 3 0 72 -36
153 -80 81 -44 168 -87 192 -95 178 -64 408 -63 570 2 24 9 102 48 172 86 71
38 130 67 131 65 1 -2 13 -57 26 -123 13 -66 34 -149 47 -184 34 -93 26 -106
-72 -114 -22 -2 280 -4 672 -5 l712 -2 25 82 c61 201 86 376 86 603 0 170 -11
287 -40 425 -184 870 -893 1530 -1765 1645 -120 16 -321 25 -400 19z"/>
<path d="M1370 2832 l0 -98 39 -22 c21 -12 41 -22 45 -22 3 0 6 34 6 75 l0 75
475 0 475 0 0 45 0 45 -520 0 -520 0 0 -98z"/>
<path d="M105 1604 c-48 -25 -64 -44 -81 -98 -13 -42 -14 -59 -4 -95 23 -85
91 -122 193 -105 l52 9 3 68 c3 62 1 67 -18 67 -18 0 -20 -6 -20 -55 0 -54 0
-54 -35 -61 -104 -19 -175 104 -112 197 35 52 69 65 121 45 52 -20 56 -20 56
0 0 18 -57 44 -97 44 -15 0 -41 -7 -58 -16z"/>
<path d="M369 1591 c-53 -54 -32 -108 62 -156 38 -20 53 -49 39 -75 -15 -28
-53 -35 -91 -16 -36 18 -49 13 -33 -12 16 -24 68 -37 107 -26 22 7 37 20 50
45 24 51 11 79 -60 126 -43 29 -59 45 -61 65 -5 44 37 57 102 32 11 -4 16 -1
16 10 0 18 -38 36 -76 36 -15 0 -38 -12 -55 -29z"/>
<path d="M550 1600 c0 -17 7 -20 50 -20 l50 0 0 -140 c0 -133 1 -140 20 -140
19 0 20 7 20 140 l0 140 50 0 c43 0 50 3 50 20 0 19 -7 20 -120 20 -113 0
-120 -1 -120 -20z"/>
<path d="M844 1604 c3 -9 6 -65 6 -126 l0 -110 35 -35 c33 -33 39 -35 86 -31
40 4 58 12 82 37 l32 31 3 125 c4 121 3 125 -17 125 -20 0 -21 -5 -21 -117 -1
-124 -5 -139 -48 -162 -30 -16 -65 -7 -92 21 -18 19 -20 35 -20 140 l0 118
-26 0 c-20 0 -25 -4 -20 -16z"/>
<path d="M1292 1598 c6 -13 35 -84 63 -158 31 -82 56 -135 64 -135 8 0 27 34
45 83 17 45 34 82 38 82 3 0 21 -38 39 -85 18 -50 37 -85 45 -85 8 0 14 1 14
3 0 2 27 72 60 157 33 85 60 155 60 157 0 2 -9 3 -19 3 -18 0 -28 -21 -101
-215 -12 -30 -12 -30 -41 50 -59 163 -60 165 -80 165 -22 0 -22 -1 -8 -50 10
-34 8 -48 -16 -114 -15 -42 -31 -73 -36 -70 -5 3 -9 10 -9 16 0 6 -17 57 -37
114 -36 98 -40 104 -66 104 -26 0 -27 -2 -15 -22z"/>
<path d="M1780 1460 l0 -161 78 3 c89 3 101 21 17 26 l-56 3 3 57 3 57 45 5
c57 6 54 24 -5 28 l-45 3 0 54 0 54 55 3 c84 5 72 23 -17 26 l-78 3 0 -161z"/>
<path d="M2020 1459 l0 -161 71 4 c63 3 74 7 95 31 33 39 32 90 -3 123 -24 23
-25 25 -10 42 26 29 22 77 -9 101 -20 16 -41 21 -85 21 l-59 0 0 -161z m114
115 c19 -19 21 -68 4 -82 -7 -5 -28 -7 -45 -5 -32 5 -33 7 -33 54 0 47 1 49
29 49 16 0 37 -7 45 -16z m14 -140 c47 -33 19 -96 -44 -98 l-39 -1 -3 58 -3
57 33 0 c19 0 44 -7 56 -16z"/>
<path d="M2438 1604 c-33 -17 -50 -68 -35 -102 6 -12 35 -36 64 -53 60 -34 68
-47 59 -84 -8 -33 -46 -42 -87 -21 -40 20 -39 20 -39 -3 0 -25 51 -45 98 -38
46 8 72 38 72 84 0 37 -18 58 -89 105 -30 20 -41 35 -41 53 0 28 31 49 60 41
11 -4 29 -9 40 -12 31 -8 25 24 -6 36 -35 14 -64 12 -96 -6z"/>
<path d="M2732 1613 c-66 -13 -123 -125 -102 -202 27 -100 154 -144 232 -82
33 27 17 35 -34 18 -58 -20 -92 -12 -129 31 -28 32 -31 40 -27 89 4 44 11 60
36 86 26 26 40 31 73 31 22 -1 46 -7 52 -13 16 -16 37 -14 37 5 0 29 -74 49
-138 37z"/>
<path d="M2950 1460 c0 -159 0 -160 23 -160 21 0 22 4 22 72 l0 73 85 0 85 0
3 -72 c3 -65 5 -73 22 -73 19 0 20 8 20 160 l0 160 -23 0 c-22 0 -24 -3 -23
-67 l1 -68 -85 0 -85 0 -3 68 c-3 59 -5 67 -22 67 -19 0 -20 -8 -20 -160z"/>
<path d="M3314 1605 c3 -9 6 -82 6 -161 l0 -144 75 0 c60 0 75 3 75 15 0 12
-13 15 -55 15 l-56 0 3 58 3 57 45 5 c59 7 58 24 -2 28 l-48 3 0 54 0 54 55 3
c87 5 71 23 -24 26 -74 3 -83 1 -77 -13z"/>
<path d="M3560 1461 l0 -161 66 0 c120 0 177 51 178 159 1 111 -44 154 -165
160 l-79 3 0 -161z m134 119 c44 -16 68 -66 63 -134 -3 -52 -8 -63 -36 -88
-27 -24 -40 -29 -74 -26 l-42 3 -3 114 c-1 63 0 121 2 128 6 15 54 17 90 3z"/>
<path d="M3880 1515 c0 -122 17 -178 61 -200 65 -34 153 -2 176 65 7 19 12 81
12 138 1 99 0 102 -21 102 -23 0 -23 -1 -20 -115 l4 -115 -32 -31 c-26 -26
-36 -30 -63 -25 -62 13 -72 33 -75 166 -3 110 -5 120 -23 120 -18 0 -19 -8
-19 -105z"/>
<path d="M4234 1590 c3 -18 6 -91 6 -162 l0 -129 77 3 c50 2 78 7 81 16 3 9
-13 12 -57 12 l-60 0 -3 143 c-3 141 -3 142 -27 145 -22 3 -23 1 -17 -28z"/>
<path d="M4460 1460 l0 -160 80 0 c63 0 80 3 80 15 0 10 -15 15 -57 17 l-58 3
0 55 0 55 48 3 c33 2 47 7 47 18 0 10 -13 14 -51 14 l-50 0 3 53 3 52 58 3
c42 2 57 7 57 17 0 12 -17 15 -80 15 l-80 0 0 -160z"/>
<path d="M900 1051 c0 -11 98 -95 190 -163 637 -467 1500 -532 2200 -165 172
90 469 305 454 329 -7 11 -2844 11 -2844 -1z"/>
<path d="M1537 133 c-15 -38 -27 -72 -27 -76 0 -16 18 -6 23 13 7 28 63 28 72
0 3 -11 12 -20 20 -20 10 0 6 19 -14 72 -16 40 -33 74 -38 75 -5 2 -22 -27
-36 -64z m47 1 c10 -26 7 -34 -14 -34 -13 0 -20 7 -20 18 0 33 23 44 34 16z"/>
<path d="M1677 163 c-4 -3 -7 -30 -7 -60 l0 -53 35 0 c36 0 67 31 44 46 -6 3
-8 16 -5 27 3 12 0 27 -6 34 -11 14 -50 18 -61 6z m51 -30 c-5 -26 -38 -29
-38 -4 0 15 6 21 21 21 14 0 19 -5 17 -17z m5 -39 c11 -11 -5 -34 -24 -34 -12
0 -19 7 -19 20 0 19 28 28 43 14z"/>
<path d="M1770 160 c0 -5 7 -10 15 -10 11 0 15 -12 15 -50 0 -27 5 -50 10 -50
6 0 10 23 10 50 0 43 3 50 20 50 11 0 20 5 20 10 0 6 -20 10 -45 10 -25 0 -45
-4 -45 -10z"/>
<path d="M1895 145 c-14 -13 -25 -30 -25 -37 0 -25 31 -58 54 -58 49 0 75 70
38 103 -25 23 -39 21 -67 -8z m61 -22 c8 -31 -6 -58 -31 -58 -22 0 -35 33 -24
63 12 32 47 29 55 -5z"/>
<path d="M2020 113 c0 -36 4 -63 10 -63 6 0 10 15 10 33 l0 32 20 -25 c19 -23
21 -24 34 -7 18 24 26 21 26 -8 0 -14 6 -25 13 -25 8 0 11 14 9 48 -5 78 -6
79 -31 38 l-25 -39 -33 39 -33 39 0 -62z"/>
<path d="M2204 155 c-18 -13 -17 -14 10 -12 42 3 42 -16 0 -36 -41 -20 -43
-50 -4 -55 24 -3 24 -3 6 11 -22 16 -14 37 15 37 15 0 19 -6 17 -22 -2 -14 3
-24 12 -26 12 -2 14 7 12 45 -6 71 -27 89 -68 58z"/>
<path d="M2295 160 c3 -5 13 -10 21 -10 10 0 14 -13 14 -50 0 -27 5 -50 10
-50 6 0 10 23 10 50 0 38 4 50 15 50 8 0 15 5 15 10 0 6 -21 10 -46 10 -27 0
-43 -4 -39 -10z"/>
<path d="M2410 112 c0 -34 4 -62 9 -62 5 0 19 13 31 30 27 38 38 38 43 -2 2
-20 4 -11 5 25 1 31 -2 57 -7 57 -5 0 -20 -17 -33 -37 l-23 -38 -3 35 c-6 63
-22 58 -22 -8z"/>
<path d="M2550 155 c-11 -13 -8 -14 19 -9 24 5 31 3 31 -9 0 -8 -8 -18 -17
-22 -16 -6 -15 -8 6 -16 20 -8 21 -12 10 -25 -8 -10 -21 -13 -37 -9 -15 4 -21
2 -17 -5 11 -18 63 -12 75 9 7 14 7 22 0 26 -6 4 -8 16 -5 26 13 40 -38 66
-65 34z"/>
<path d="M2673 163 c-22 -8 -14 -21 8 -16 12 4 25 0 30 -8 6 -10 -1 -18 -24
-29 -20 -10 -32 -23 -32 -35 0 -17 7 -20 43 -21 l42 -1 0 43 c0 57 -26 84 -67
67z m47 -72 c0 -5 -7 -14 -15 -21 -18 -15 -42 1 -31 19 8 13 46 15 46 2z"/>
<path d="M3067 152 c-15 -16 -16 -24 -6 -45 9 -21 9 -30 -1 -42 -9 -11 -10
-15 0 -15 6 0 20 10 31 23 l19 22 6 -23 c12 -42 25 -22 22 36 -3 53 -5 57 -29
60 -15 2 -32 -5 -42 -16z m53 -27 c0 -18 -5 -25 -19 -25 -11 0 -23 5 -26 10
-11 18 3 40 25 40 15 0 20 -7 20 -25z"/>
<path d="M2780 105 l0 -55 41 0 c32 0 42 -4 46 -20 7 -28 23 -25 23 5 0 14 -4
25 -10 25 -5 0 -10 23 -10 50 0 28 -4 50 -10 50 -5 0 -10 -22 -10 -50 0 -47
-2 -50 -25 -50 -23 0 -25 3 -25 50 0 28 -4 50 -10 50 -5 0 -10 -25 -10 -55z"/>
<path d="M2920 105 c0 -30 4 -55 9 -55 5 0 19 14 31 30 12 17 26 30 31 30 5 0
9 -13 9 -30 0 -16 5 -30 11 -30 14 0 7 102 -7 107 -7 2 -22 -13 -35 -34 l-24
-38 -3 38 c-5 57 -22 44 -22 -18z"/>
</g>
</svg>
